<svg width="399" height="140" viewBox="0 0 399 140" fill="none" xmlns="http://www.w3.org/2000/svg">
<path d="M211.114 97H192.551V44.6364H211.267C216.534 44.6364 221.068 45.6847 224.869 47.7812C228.67 49.8608 231.594 52.8523 233.639 56.7557C235.702 60.6591 236.733 65.3295 236.733 70.767C236.733 76.2216 235.702 80.9091 233.639 84.8295C231.594 88.75 228.653 91.7585 224.818 93.8551C221 95.9517 216.432 97 211.114 97ZM203.622 87.5142H210.653C213.926 87.5142 216.679 86.9347 218.912 85.7756C221.162 84.5994 222.849 82.7841 223.974 80.3295C225.116 77.858 225.688 74.6705 225.688 70.767C225.688 66.8977 225.116 63.7358 223.974 61.2812C222.849 58.8267 221.17 57.0199 218.938 55.8608C216.705 54.7017 213.952 54.1222 210.679 54.1222H203.622V87.5142ZM293.053 70.8182C293.053 76.5284 291.971 81.3864 289.806 85.392C287.658 89.3977 284.727 92.4574 281.011 94.571C277.312 96.6676 273.153 97.7159 268.533 97.7159C263.88 97.7159 259.704 96.6591 256.005 94.5455C252.306 92.4318 249.383 89.3722 247.235 85.3665C245.087 81.3608 244.013 76.5114 244.013 70.8182C244.013 65.108 245.087 60.25 247.235 56.2443C249.383 52.2386 252.306 49.1875 256.005 47.0909C259.704 44.9773 263.88 43.9205 268.533 43.9205C273.153 43.9205 277.312 44.9773 281.011 47.0909C284.727 49.1875 287.658 52.2386 289.806 56.2443C291.971 60.25 293.053 65.108 293.053 70.8182ZM281.829 70.8182C281.829 67.1193 281.275 64 280.167 61.4602C279.076 58.9205 277.533 56.9943 275.539 55.6818C273.545 54.3693 271.21 53.7131 268.533 53.7131C265.857 53.7131 263.522 54.3693 261.528 55.6818C259.533 56.9943 257.982 58.9205 256.874 61.4602C255.783 64 255.238 67.1193 255.238 70.8182C255.238 74.517 255.783 77.6364 256.874 80.1761C257.982 82.7159 259.533 84.642 261.528 85.9545C263.522 87.267 265.857 87.9233 268.533 87.9233C271.21 87.9233 273.545 87.267 275.539 85.9545C277.533 84.642 279.076 82.7159 280.167 80.1761C281.275 77.6364 281.829 74.517 281.829 70.8182ZM347.456 62.9688H336.257C336.053 61.5199 335.635 60.233 335.004 59.108C334.374 57.9659 333.564 56.9943 332.575 56.1932C331.587 55.392 330.445 54.7784 329.149 54.3523C327.871 53.9261 326.482 53.7131 324.982 53.7131C322.271 53.7131 319.911 54.3864 317.899 55.733C315.888 57.0625 314.328 59.0057 313.22 61.5625C312.112 64.1023 311.558 67.1875 311.558 70.8182C311.558 74.5511 312.112 77.6875 313.22 80.2273C314.345 82.767 315.913 84.6847 317.925 85.9801C319.936 87.2756 322.263 87.9233 324.905 87.9233C326.388 87.9233 327.76 87.7273 329.021 87.3352C330.3 86.9432 331.433 86.3722 332.422 85.6222C333.411 84.8551 334.229 83.9261 334.876 82.8352C335.541 81.7443 336.001 80.5 336.257 79.1023L347.456 79.1534C347.166 81.5568 346.442 83.875 345.283 86.108C344.141 88.3239 342.598 90.3097 340.655 92.0653C338.729 93.804 336.428 95.1847 333.751 96.2074C331.092 97.2131 328.084 97.7159 324.726 97.7159C320.055 97.7159 315.879 96.6591 312.197 94.5455C308.533 92.4318 305.635 89.3722 303.504 85.3665C301.391 81.3608 300.334 76.5114 300.334 70.8182C300.334 65.108 301.408 60.25 303.555 56.2443C305.703 52.2386 308.618 49.1875 312.3 47.0909C315.982 44.9773 320.124 43.9205 324.726 43.9205C327.76 43.9205 330.572 44.3466 333.163 45.1989C335.771 46.0511 338.081 47.2955 340.092 48.9318C342.104 50.5511 343.74 52.5369 345.001 54.8892C346.28 57.2415 347.098 59.9347 347.456 62.9688ZM383.801 59.696C383.597 57.6335 382.719 56.0312 381.168 54.8892C379.616 53.7472 377.511 53.1761 374.852 53.1761C373.045 53.1761 371.52 53.4318 370.276 53.9432C369.031 54.4375 368.077 55.1278 367.412 56.0142C366.764 56.9006 366.44 57.9062 366.44 59.0312C366.406 59.9688 366.602 60.7869 367.028 61.4858C367.472 62.1847 368.077 62.7898 368.844 63.3011C369.611 63.7955 370.497 64.2301 371.503 64.6051C372.509 64.9631 373.582 65.2699 374.724 65.5256L379.429 66.6506C381.713 67.1619 383.81 67.8437 385.719 68.696C387.628 69.5483 389.281 70.5966 390.679 71.8409C392.077 73.0852 393.159 74.5511 393.926 76.2386C394.71 77.9261 395.111 79.8608 395.128 82.0426C395.111 85.2472 394.293 88.0256 392.673 90.3778C391.071 92.7131 388.753 94.5284 385.719 95.8239C382.702 97.1023 379.063 97.7415 374.801 97.7415C370.574 97.7415 366.892 97.0938 363.756 95.7983C360.636 94.5028 358.199 92.5852 356.443 90.0455C354.705 87.4886 353.793 84.3267 353.707 80.5597H364.42C364.54 82.3153 365.043 83.7812 365.929 84.9574C366.832 86.1165 368.034 86.9943 369.534 87.5909C371.051 88.1705 372.764 88.4602 374.673 88.4602C376.548 88.4602 378.176 88.1875 379.557 87.642C380.955 87.0966 382.037 86.3381 382.804 85.3665C383.571 84.3949 383.955 83.2784 383.955 82.017C383.955 80.8409 383.605 79.8523 382.906 79.0511C382.224 78.25 381.219 77.5682 379.889 77.0057C378.577 76.4432 376.966 75.9318 375.057 75.4716L369.355 74.0398C364.94 72.9659 361.455 71.2869 358.898 69.0028C356.341 66.7187 355.071 63.642 355.088 59.7727C355.071 56.6023 355.915 53.8324 357.619 51.4631C359.341 49.0938 361.702 47.2443 364.702 45.9148C367.702 44.5852 371.111 43.9205 374.929 43.9205C378.815 43.9205 382.207 44.5852 385.105 45.9148C388.02 47.2443 390.287 49.0938 391.906 51.4631C393.526 53.8324 394.361 56.5767 394.412 59.696H383.801Z" fill="white"/>
<rect width="140" height="140" rx="28" fill="#6366F1"/>
<path d="M46.0348 44C50.4679 44 54.0964 44.598 56.9202 45.7939C59.744 46.9898 61.834 48.6909 63.1901 50.897C64.5347 53.103 65.2081 55.7155 65.2105 58.7344C65.2128 61.7533 64.5393 64.3193 63.1901 66.4325C61.8409 68.5434 59.7509 70.1573 56.9202 71.2743C54.0894 72.3913 50.461 72.9486 46.0348 72.9463H39.1065V95.7272H45.3382V96.2496H22V95.7272H28.27V44.5225H22V44H46.0348ZM39.103 72.4238H44.6415C46.0398 72.4507 47.4069 72.0093 48.5254 71.1698C49.6643 70.288 50.5924 69.1635 51.2424 67.8781C51.9639 66.48 52.4969 64.9925 52.8273 63.4543C53.1709 61.9044 53.3461 60.3219 53.3498 58.7344C53.3429 57.1125 53.1678 55.4957 52.8273 53.91C52.5053 52.3106 51.9784 50.7594 51.2598 49.2946C50.6159 47.9611 49.6886 46.7842 48.5428 45.8462C47.4429 44.9642 46.0685 44.4958 44.6589 44.5225H39.1065L39.103 72.4238Z" fill="white"/>
<path d="M118 44V44.5225H111.73V95.7272H118V96.2496H94.6618V95.7272H100.932V70.7518H82.1219V95.7272H88.4267V96.2496H65.0537V95.7272H71.3237V44.5225H65.0537V44H88.4267V44.5225H82.1219V70.1945H100.932V44.5225H94.6618V44H118Z" fill="white"/>
</svg>
