<svg width="32" height="32" viewBox="0 0 32 32" fill="none" xmlns="http://www.w3.org/2000/svg">
<path d="M29.5242 13.0712C29.8813 11.9956 30.0049 10.8563 29.8865 9.7292C29.7682 8.60212 29.4107 7.51328 28.8379 6.5354C27.0956 3.50266 23.5938 1.94266 20.1739 2.6757C19.227 1.6224 18.0196 0.83679 16.6729 0.39778C15.3263 -0.0412294 13.8879 -0.118185 12.5021 0.174642C11.1163 0.467469 9.832 1.11977 8.77809 2.06603C7.72419 3.01229 6.93782 4.2192 6.49796 5.56555C5.38753 5.79325 4.33848 6.25535 3.42094 6.92095C2.5034 7.58656 1.73849 8.44034 1.17735 9.42524C-0.583885 12.4532 -0.184008 16.2725 2.16602 18.8702C1.80755 19.9452 1.68278 21.0843 1.80005 22.2114C1.91732 23.3385 2.27393 24.4276 2.84602 25.4058C4.59051 28.4396 8.09452 29.9995 11.5163 29.2655C12.2686 30.1127 13.193 30.7896 14.2278 31.2511C15.2625 31.7126 16.3838 31.948 17.5168 31.9417C21.0221 31.9447 24.1277 29.6819 25.1985 26.344C26.3088 26.1159 27.3576 25.6537 28.2751 24.9881C29.1926 24.3225 29.9576 23.4689 30.519 22.4843C32.2589 19.4618 31.8575 15.6632 29.5242 13.0712ZM17.5168 29.8512C16.1176 29.8534 14.7623 29.363 13.6885 28.466L13.8774 28.3589L20.2368 24.6881C20.3951 24.5953 20.5265 24.4629 20.6181 24.304C20.7098 24.145 20.7585 23.9649 20.7595 23.7814V14.8153L23.4481 16.3705C23.4749 16.3841 23.4937 16.4099 23.4985 16.4398V23.8696C23.4916 27.1702 20.8175 29.8443 17.5168 29.8512ZM4.65944 24.3607C3.95774 23.1491 3.7058 21.7289 3.94793 20.3498L4.13673 20.4631L10.5025 24.134C10.66 24.2265 10.8393 24.2752 11.022 24.2752C11.2046 24.2752 11.3839 24.2265 11.5414 24.134L19.3175 19.651V22.7551C19.3168 22.7712 19.3125 22.7869 19.3048 22.801C19.2972 22.8152 19.2865 22.8275 19.2735 22.8369L12.8322 26.5519C9.96984 28.2009 6.31285 27.2203 4.65944 24.3607ZM2.98448 10.5083C3.69105 9.2889 4.8063 8.35881 6.13279 7.88272V15.4384C6.1304 15.621 6.17704 15.8008 6.26786 15.9592C6.35867 16.1176 6.49033 16.2487 6.6491 16.3388L14.3874 20.8031L11.6988 22.3583C11.6843 22.366 11.6681 22.37 11.6516 22.37C11.6352 22.37 11.619 22.366 11.6044 22.3583L5.17575 18.6499C2.31901 16.994 1.33931 13.3398 2.98448 10.4769V10.5083ZM25.0726 15.64L17.3089 11.1317L19.9914 9.58278C20.0059 9.57505 20.0222 9.57101 20.0386 9.57101C20.0551 9.57101 20.0713 9.57505 20.0859 9.58278L26.5146 13.2977C27.4975 13.8649 28.2988 14.7 28.825 15.7055C29.3511 16.711 29.5804 17.8454 29.486 18.9763C29.3916 20.1072 28.9774 21.1879 28.2918 22.0923C27.6062 22.9966 26.6775 23.6873 25.6141 24.0836V16.5278C25.6086 16.3455 25.5557 16.1679 25.4608 16.0123C25.3659 15.8566 25.2321 15.7283 25.0726 15.64ZM27.7485 11.6166L27.5596 11.5031L21.2065 7.80087C21.0481 7.70789 20.8677 7.65888 20.6839 7.65888C20.5002 7.65888 20.3198 7.70789 20.1613 7.80087L12.3914 12.2841V9.17995C12.3897 9.16417 12.3924 9.14824 12.399 9.13383C12.4057 9.11942 12.4161 9.10708 12.4292 9.0981L18.8578 5.38943C19.8431 4.82183 20.9696 4.5465 22.1056 4.59564C23.2417 4.64478 24.3402 5.01636 25.2728 5.66692C26.2053 6.31748 26.9334 7.22012 27.3718 8.26927C27.8102 9.31843 27.9409 10.4707 27.7484 11.5914V11.6166H27.7485ZM10.9244 17.1196L8.23581 15.5707C8.22237 15.5626 8.21088 15.5516 8.20216 15.5386C8.19344 15.5255 8.1877 15.5107 8.18535 15.4952V8.08432C8.18684 6.94744 8.51194 5.83448 9.12265 4.87556C9.73336 3.91665 10.6044 3.1514 11.634 2.66929C12.6636 2.18719 13.8092 2.00815 14.9368 2.15311C16.0644 2.29807 17.1274 2.76104 18.0016 3.48789L17.8127 3.59497L11.4533 7.26573C11.295 7.35857 11.1636 7.49097 11.072 7.64994C10.9804 7.8089 10.9317 7.98897 10.9307 8.17244L10.9244 17.1198V17.1196ZM12.3851 13.9713L15.8482 11.9754L19.3175 13.9715V17.9633L15.8608 19.9594L12.3915 17.9633L12.3851 13.9713Z" fill="#74AA9C"/>
</svg>
