<svg width="159" height="23" viewBox="0 0 159 23" fill="none" xmlns="http://www.w3.org/2000/svg">
<path d="M17.724 1.714C13.186 1.714 10.348 4 9.214 8.571C10.916 6.286 12.901 5.428 15.171 6.001C16.467 6.326 17.391 7.272 18.416 8.319C20.084 10.025 22.016 12 26.235 12C30.774 12 33.611 9.714 34.745 5.143C33.044 7.429 31.058 8.286 28.788 7.714C27.494 7.389 26.568 6.442 25.543 5.394C23.875 3.689 21.943 1.714 17.724 1.714ZM9.214 12C4.675 12 1.838 14.286 0.704002 18.857C2.405 16.571 4.391 15.714 6.661 16.286C7.955 16.611 8.881 17.558 9.906 18.606C11.574 20.311 13.506 22.286 17.724 22.286C22.264 22.286 25.101 20 26.235 15.429C24.533 17.715 22.547 18.572 20.278 18C18.983 17.674 18.058 16.728 17.033 15.68C15.364 13.975 13.434 12 9.214 12Z" fill="#38BDF8"/>
<path d="M50.285 9.531V6.857H47.119V3.257L44.361 4.08V6.857H42.013V9.531H44.361V15.703C44.361 19.046 46.047 20.229 50.285 19.714V17.22C48.191 17.323 47.119 17.349 47.119 15.703V9.53H50.285V9.531ZM62.372 6.857V8.683C61.402 7.346 59.896 6.523 57.904 6.523C54.432 6.523 51.547 9.454 51.547 13.286C51.547 17.091 54.432 20.049 57.904 20.049C59.896 20.049 61.402 19.226 62.372 17.863V19.714H65.13V6.857H62.372ZM58.338 17.4C56.041 17.4 54.304 15.677 54.304 13.286C54.304 10.894 56.04 9.171 58.338 9.171C60.636 9.171 62.372 10.894 62.372 13.286C62.372 15.677 60.636 17.4 58.338 17.4ZM69.723 4.929C70.693 4.929 71.485 4.106 71.485 3.154C71.485 2.177 70.693 1.38 69.723 1.38C68.753 1.38 67.961 2.177 67.961 3.154C67.961 4.106 68.753 4.929 69.723 4.929ZM68.344 19.714H71.102V6.857H68.344V19.714ZM74.304 19.714H77.061V0.943H74.303L74.304 19.714ZM94.969 6.857L92.467 15.729L89.812 6.857H87.182L84.5 15.73L82.023 6.858H79.113L83.121 19.715H85.828L88.508 11.05L91.164 19.715H93.87L97.88 6.857H94.969ZM101.289 4.929C102.259 4.929 103.051 4.106 103.051 3.154C103.051 2.177 102.259 1.38 101.289 1.38C100.319 1.38 99.527 2.177 99.527 3.154C99.527 4.106 100.319 4.929 101.289 4.929ZM99.91 19.714H102.668V6.857H99.91V19.714ZM112.584 6.523C110.848 6.523 109.469 7.166 108.627 8.503V6.857H105.869V19.714H108.627V12.823C108.627 10.2 110.057 9.12 111.869 9.12C113.606 9.12 114.729 10.149 114.729 12.103V19.714H117.486V11.82C117.486 8.477 115.444 6.523 112.584 6.523ZM130.566 1.714V8.683C129.595 7.346 128.089 6.523 126.098 6.523C122.625 6.523 119.74 9.454 119.74 13.286C119.74 17.091 122.625 20.049 126.098 20.049C128.089 20.049 129.595 19.226 130.566 17.863V19.714H133.323V1.714H130.566ZM126.532 17.4C124.234 17.4 122.498 15.677 122.498 13.286C122.498 10.894 124.234 9.171 126.532 9.171C128.829 9.171 130.566 10.894 130.566 13.286C130.566 15.677 128.829 17.4 126.532 17.4Z" fill="white"/>
<path fill-rule="evenodd" clip-rule="evenodd" d="M144.532 3.429H153.043C153.945 3.429 154.811 3.789 155.45 4.433C156.088 5.076 156.447 5.948 156.447 6.857V15.429C156.447 16.338 156.088 17.21 155.45 17.853C155.135 18.1708 154.76 18.4231 154.347 18.5954C153.934 18.7677 153.491 18.8566 153.043 18.857H144.532C144.084 18.8568 143.641 18.7681 143.228 18.5957C142.815 18.4234 142.44 18.171 142.125 17.853C141.486 17.2083 141.127 16.337 141.128 15.429V6.857C141.128 5.947 141.486 5.076 142.125 4.433C142.44 4.11502 142.815 3.86259 143.228 3.69027C143.641 3.51795 144.084 3.42915 144.532 3.429ZM139.426 6.857C139.426 5.493 139.964 4.185 140.921 3.221C141.394 2.74402 141.956 2.36529 142.576 2.10665C143.196 1.84801 143.86 1.71456 144.532 1.714H153.043C154.397 1.714 155.696 2.256 156.653 3.221C157.612 4.18808 158.15 5.49507 158.149 6.857V15.429C158.15 16.7909 157.612 18.0979 156.653 19.065C156.18 19.5419 155.618 19.9204 154.999 20.1789C154.379 20.4374 153.714 20.5707 153.043 20.571H144.532C143.861 20.5706 143.196 20.4373 142.576 20.1788C141.956 19.9203 141.394 19.5418 140.921 19.065C139.963 18.0975 139.425 16.7907 139.426 15.429V6.857ZM150.333 13.108C150.333 14.92 148.974 16.024 147.14 16.024C145.317 16.024 143.958 14.92 143.958 13.108V7.458H145.591V12.978C145.591 13.793 146.02 14.405 147.14 14.405C148.26 14.405 148.689 13.793 148.689 12.977V7.457H150.333V13.109V13.108ZM152.053 15.856V7.457H153.697V15.857H152.053V15.856Z" fill="white"/>
</svg>
