<svg width="67" height="67" viewBox="0 0 67 67" fill="none" xmlns="http://www.w3.org/2000/svg">
    <path d="M64.4879 22V22.08L46.3479 46.55C45.9274 47.2049 45.3466 47.7415 44.6606 48.109C43.9746 48.4765 43.2061 48.6627 42.4279 48.65H24.6379C22.2679 48.65 21.2679 47.99 20.2779 45.5L14.8879 28.13C14.5579 27.39 14.4196 26.5788 14.4861 25.7713C14.5525 24.9638 14.8214 24.1861 15.2679 23.51L33.2679 0H33.1179C26.0639 0.0216738 19.1998 2.28825 13.5199 6.47146C7.84006 10.6547 3.63923 16.5373 1.52588 23.2674C-0.58747 29.9975 -0.503623 37.2256 1.76528 43.9048C4.03418 50.5841 8.37034 56.3677 14.1457 60.418C19.9211 64.4683 26.8359 66.5751 33.8886 66.4331C40.9412 66.2911 47.7656 63.9078 53.3733 59.6284C58.9811 55.3489 63.081 49.3955 65.0792 42.6303C67.0775 35.8652 66.8704 28.6396 64.4879 22Z" fill="#DAE64A"/>
    <path d="M14.888 28.13L20.278 45.5C21.278 47.99 22.278 48.65 24.638 48.65H42.428C43.2061 48.6627 43.9746 48.4765 44.6606 48.109C45.3467 47.7415 45.9275 47.2049 46.348 46.55L64.488 22.08V22C62.1804 15.5819 57.955 10.0286 52.3846 6.09322C46.8141 2.1578 40.1683 0.030583 33.348 0L15.348 23.51C14.8885 24.1791 14.6055 24.9533 14.5251 25.761C14.4446 26.5686 14.5695 27.3835 14.888 28.13ZM22.248 22.19H44.248V29.35H36.888V41.53H29.738V29.35H22.248V22.19Z" fill="black"/>
    <path d="M29.728 41.53H36.888V29.34H44.288V22.19H22.248V29.34H29.728V41.53Z" fill="white"/>
</svg>
