<?xml version="1.0" standalone="no"?>
<!DOCTYPE svg PUBLIC "-//W3C//DTD SVG 20010904//EN"
 "http://www.w3.org/TR/2001/REC-SVG-20010904/DTD/svg10.dtd">
<svg version="1.0" xmlns="http://www.w3.org/2000/svg"
 width="700.000000pt" height="700.000000pt" viewBox="0 0 700.000000 700.000000"
 preserveAspectRatio="xMidYMid meet">
<metadata>
Created by potrace 1.14, written by Peter Selinger 2001-2017
</metadata>
<g transform="translate(0.000000,700.000000) scale(0.100000,-0.100000)"
fill="#000000" stroke="none">
<path d="M1278 6990 c-560 -51 -1029 -423 -1203 -954 -18 -56 -41 -148 -51
-206 -18 -100 -19 -209 -19 -2330 0 -2121 1 -2230 19 -2330 104 -594 552
-1042 1146 -1146 100 -18 209 -19 2330 -19 2121 0 2230 1 2330 19 595 104
1042 551 1146 1146 18 100 19 209 19 2330 0 2121 -1 2230 -19 2330 -104 590
-535 1025 -1136 1147 -79 15 -252 17 -2280 19 -1207 1 -2234 -2 -2282 -6z
m1300 -2206 c344 -51 565 -210 648 -467 22 -68 28 -106 32 -223 4 -121 1 -152
-17 -225 -50 -199 -156 -326 -347 -415 -167 -78 -340 -104 -690 -104 l-244 0
0 -565 0 -565 155 0 c148 0 155 -1 155 -20 0 -20 -7 -20 -585 -20 -578 0 -585
0 -585 20 0 19 7 20 155 20 l155 0 0 1275 0 1275 -155 0 c-131 0 -155 2 -155
15 0 23 1323 22 1478 -1z m1852 1 c0 -13 -24 -15 -160 -15 l-160 0 0 -640 0
-640 465 0 465 0 0 640 0 640 -155 0 c-131 0 -155 2 -155 15 0 13 72 15 585
15 513 0 585 -2 585 -15 0 -13 -24 -15 -155 -15 l-155 0 0 -1275 0 -1275 155
0 c148 0 155 -1 155 -20 0 -20 -7 -20 -585 -20 -578 0 -585 0 -585 20 0 19 7
20 155 20 l155 0 0 620 0 620 -465 0 -465 0 0 -620 0 -619 158 -3 c132 -3 157
-5 157 -18 0 -13 -73 -15 -587 -18 -583 -2 -588 -2 -588 18 0 19 6 20 155 20
l155 0 0 1275 0 1275 -155 0 c-131 0 -155 2 -155 15 0 13 72 15 590 15 518 0
590 -2 590 -15z"/>
<path d="M1960 4075 l0 -697 173 4 c172 3 173 3 239 36 176 86 288 339 288
647 0 314 -121 590 -296 676 -45 22 -63 24 -226 27 l-178 4 0 -697z"/>
</g>
</svg>
